<mxfile host="65bd71144e">
    <diagram id="z9jyrgUfZlZ5Y-AryouT" name="Page-1">
        <mxGraphModel dx="1074" dy="741" grid="1" gridSize="10" guides="1" tooltips="1" connect="1" arrows="1" fold="1" page="1" pageScale="1" pageWidth="1169" pageHeight="827" math="0" shadow="0">
            <root>
                <mxCell id="0"/>
                <mxCell id="1" parent="0"/>
                <mxCell id="4" value="" style="rounded=0;whiteSpace=wrap;html=1;" vertex="1" parent="1">
                    <mxGeometry x="40" y="10" width="910" height="680" as="geometry"/>
                </mxCell>
                <mxCell id="6" value="" style="shape=step;perimeter=stepPerimeter;whiteSpace=wrap;html=1;fixedSize=1;rotation=58;" vertex="1" parent="1">
                    <mxGeometry x="100" y="110" width="80" height="20" as="geometry"/>
                </mxCell>
                <mxCell id="7" value="" style="shape=step;perimeter=stepPerimeter;whiteSpace=wrap;html=1;fixedSize=1;rotation=45;" vertex="1" parent="1">
                    <mxGeometry x="130" y="90" width="80" height="20" as="geometry"/>
                </mxCell>
                <mxCell id="8" value="" style="shape=step;perimeter=stepPerimeter;whiteSpace=wrap;html=1;fixedSize=1;rotation=15;" vertex="1" parent="1">
                    <mxGeometry x="130" y="60" width="80" height="20" as="geometry"/>
                </mxCell>
                <mxCell id="9" value="" style="shape=step;perimeter=stepPerimeter;whiteSpace=wrap;html=1;fixedSize=1;rotation=75;" vertex="1" parent="1">
                    <mxGeometry x="70" y="120" width="80" height="20" as="geometry"/>
                </mxCell>
                <mxCell id="10" value="" style="shape=step;perimeter=stepPerimeter;whiteSpace=wrap;html=1;fixedSize=1;rotation=90;" vertex="1" parent="1">
                    <mxGeometry x="40" y="120" width="80" height="20" as="geometry"/>
                </mxCell>
                <mxCell id="11" value="sun" style="ellipse;whiteSpace=wrap;html=1;aspect=fixed;" vertex="1" parent="1">
                    <mxGeometry x="50" y="20" width="110" height="110" as="geometry"/>
                </mxCell>
                <mxCell id="12" value="basket" style="shape=cylinder3;whiteSpace=wrap;html=1;boundedLbl=1;backgroundOutline=1;size=15;" vertex="1" parent="1">
                    <mxGeometry x="430" y="545" width="90" height="70" as="geometry"/>
                </mxCell>
                <mxCell id="13" value="Grass" style="rounded=1;whiteSpace=wrap;html=1;" vertex="1" parent="1">
                    <mxGeometry x="40" y="630" width="910" height="60" as="geometry"/>
                </mxCell>
                <mxCell id="14" value="apple" style="ellipse;whiteSpace=wrap;html=1;aspect=fixed;" vertex="1" parent="1">
                    <mxGeometry x="470" y="280" width="70" height="70" as="geometry"/>
                </mxCell>
                <mxCell id="15" value="apple" style="ellipse;whiteSpace=wrap;html=1;aspect=fixed;" vertex="1" parent="1">
                    <mxGeometry x="260" y="170" width="70" height="70" as="geometry"/>
                </mxCell>
                <mxCell id="16" value="apple" style="ellipse;whiteSpace=wrap;html=1;aspect=fixed;" vertex="1" parent="1">
                    <mxGeometry x="497.5" y="377.5" width="70" height="70" as="geometry"/>
                </mxCell>
                <mxCell id="17" value="apple" style="ellipse;whiteSpace=wrap;html=1;aspect=fixed;" vertex="1" parent="1">
                    <mxGeometry x="640" y="470" width="70" height="70" as="geometry"/>
                </mxCell>
                <mxCell id="18" value="apple" style="ellipse;whiteSpace=wrap;html=1;aspect=fixed;" vertex="1" parent="1">
                    <mxGeometry x="190" y="315" width="70" height="70" as="geometry"/>
                </mxCell>
                <mxCell id="19" value="apple" style="ellipse;whiteSpace=wrap;html=1;aspect=fixed;" vertex="1" parent="1">
                    <mxGeometry x="840" y="270" width="70" height="70" as="geometry"/>
                </mxCell>
                <mxCell id="20" value="apple" style="ellipse;whiteSpace=wrap;html=1;aspect=fixed;" vertex="1" parent="1">
                    <mxGeometry x="700" y="100" width="70" height="70" as="geometry"/>
                </mxCell>
                <mxCell id="21" value="apple" style="ellipse;whiteSpace=wrap;html=1;aspect=fixed;" vertex="1" parent="1">
                    <mxGeometry x="430" y="50" width="70" height="70" as="geometry"/>
                </mxCell>
                <mxCell id="26" value="banana" style="ellipse;whiteSpace=wrap;html=1;rotation=90;" vertex="1" parent="1">
                    <mxGeometry x="80" y="460" width="120" height="30" as="geometry"/>
                </mxCell>
                <mxCell id="27" value="banana" style="ellipse;whiteSpace=wrap;html=1;rotation=90;" vertex="1" parent="1">
                    <mxGeometry x="290" y="110" width="120" height="30" as="geometry"/>
                </mxCell>
                <mxCell id="28" value="banana" style="ellipse;whiteSpace=wrap;html=1;rotation=90;" vertex="1" parent="1">
                    <mxGeometry x="290" y="370" width="120" height="30" as="geometry"/>
                </mxCell>
                <mxCell id="29" value="banana" style="ellipse;whiteSpace=wrap;html=1;rotation=90;" vertex="1" parent="1">
                    <mxGeometry x="710" y="270" width="120" height="30" as="geometry"/>
                </mxCell>
                <mxCell id="30" value="banana" style="ellipse;whiteSpace=wrap;html=1;rotation=90;" vertex="1" parent="1">
                    <mxGeometry x="560" y="190" width="120" height="30" as="geometry"/>
                </mxCell>
                <mxCell id="56" value="" style="triangle;whiteSpace=wrap;html=1;rotation=90;" vertex="1" parent="1">
                    <mxGeometry x="400" y="380" width="20" height="10" as="geometry"/>
                </mxCell>
                <mxCell id="57" value="" style="triangle;whiteSpace=wrap;html=1;rotation=90;" vertex="1" parent="1">
                    <mxGeometry x="420" y="380" width="20" height="10" as="geometry"/>
                </mxCell>
                <mxCell id="58" value="" style="triangle;whiteSpace=wrap;html=1;rotation=90;direction=south;" vertex="1" parent="1">
                    <mxGeometry x="380" y="350" width="10" height="20" as="geometry"/>
                </mxCell>
                <mxCell id="59" value="" style="triangle;whiteSpace=wrap;html=1;rotation=90;direction=south;" vertex="1" parent="1">
                    <mxGeometry x="380" y="327.5" width="10" height="22.5" as="geometry"/>
                </mxCell>
                <mxCell id="60" value="" style="triangle;whiteSpace=wrap;html=1;rotation=90;direction=west;" vertex="1" parent="1">
                    <mxGeometry x="400" y="310" width="20" height="10" as="geometry"/>
                </mxCell>
                <mxCell id="62" value="" style="triangle;whiteSpace=wrap;html=1;rotation=90;direction=west;" vertex="1" parent="1">
                    <mxGeometry x="420" y="310" width="20" height="10" as="geometry"/>
                </mxCell>
                <mxCell id="63" value="" style="triangle;whiteSpace=wrap;html=1;rotation=90;direction=north;" vertex="1" parent="1">
                    <mxGeometry x="450" y="350" width="10" height="20" as="geometry"/>
                </mxCell>
                <mxCell id="64" value="" style="triangle;whiteSpace=wrap;html=1;rotation=90;direction=north;" vertex="1" parent="1">
                    <mxGeometry x="450" y="330" width="10" height="20" as="geometry"/>
                </mxCell>
                <mxCell id="65" value="Spikeball" style="ellipse;whiteSpace=wrap;html=1;aspect=fixed;" vertex="1" parent="1">
                    <mxGeometry x="387.5" y="315" width="62.5" height="62.5" as="geometry"/>
                </mxCell>
                <mxCell id="66" value="" style="triangle;whiteSpace=wrap;html=1;rotation=90;" vertex="1" parent="1">
                    <mxGeometry x="230" y="540" width="20" height="10" as="geometry"/>
                </mxCell>
                <mxCell id="67" value="" style="triangle;whiteSpace=wrap;html=1;rotation=90;" vertex="1" parent="1">
                    <mxGeometry x="250" y="540" width="20" height="10" as="geometry"/>
                </mxCell>
                <mxCell id="68" value="" style="triangle;whiteSpace=wrap;html=1;rotation=90;direction=south;" vertex="1" parent="1">
                    <mxGeometry x="210" y="510" width="10" height="20" as="geometry"/>
                </mxCell>
                <mxCell id="69" value="" style="triangle;whiteSpace=wrap;html=1;rotation=90;direction=south;" vertex="1" parent="1">
                    <mxGeometry x="210" y="487.5" width="10" height="22.5" as="geometry"/>
                </mxCell>
                <mxCell id="70" value="" style="triangle;whiteSpace=wrap;html=1;rotation=90;direction=west;" vertex="1" parent="1">
                    <mxGeometry x="230" y="470" width="20" height="10" as="geometry"/>
                </mxCell>
                <mxCell id="71" value="" style="triangle;whiteSpace=wrap;html=1;rotation=90;direction=west;" vertex="1" parent="1">
                    <mxGeometry x="250" y="470" width="20" height="10" as="geometry"/>
                </mxCell>
                <mxCell id="72" value="" style="triangle;whiteSpace=wrap;html=1;rotation=90;direction=north;" vertex="1" parent="1">
                    <mxGeometry x="280" y="510" width="10" height="20" as="geometry"/>
                </mxCell>
                <mxCell id="73" value="" style="triangle;whiteSpace=wrap;html=1;rotation=90;direction=north;" vertex="1" parent="1">
                    <mxGeometry x="280" y="490" width="10" height="20" as="geometry"/>
                </mxCell>
                <mxCell id="74" value="Spikeball" style="ellipse;whiteSpace=wrap;html=1;aspect=fixed;" vertex="1" parent="1">
                    <mxGeometry x="217.5" y="477.5" width="62.5" height="62.5" as="geometry"/>
                </mxCell>
                <mxCell id="75" value="" style="triangle;whiteSpace=wrap;html=1;rotation=90;" vertex="1" parent="1">
                    <mxGeometry x="605" y="404" width="20" height="10" as="geometry"/>
                </mxCell>
                <mxCell id="76" value="" style="triangle;whiteSpace=wrap;html=1;rotation=90;" vertex="1" parent="1">
                    <mxGeometry x="625" y="404" width="20" height="10" as="geometry"/>
                </mxCell>
                <mxCell id="77" value="" style="triangle;whiteSpace=wrap;html=1;rotation=90;direction=south;" vertex="1" parent="1">
                    <mxGeometry x="585" y="374" width="10" height="20" as="geometry"/>
                </mxCell>
                <mxCell id="78" value="" style="triangle;whiteSpace=wrap;html=1;rotation=90;direction=south;" vertex="1" parent="1">
                    <mxGeometry x="585" y="351.5" width="10" height="22.5" as="geometry"/>
                </mxCell>
                <mxCell id="79" value="" style="triangle;whiteSpace=wrap;html=1;rotation=90;direction=west;" vertex="1" parent="1">
                    <mxGeometry x="605" y="334" width="20" height="10" as="geometry"/>
                </mxCell>
                <mxCell id="80" value="" style="triangle;whiteSpace=wrap;html=1;rotation=90;direction=west;" vertex="1" parent="1">
                    <mxGeometry x="625" y="334" width="20" height="10" as="geometry"/>
                </mxCell>
                <mxCell id="81" value="" style="triangle;whiteSpace=wrap;html=1;rotation=90;direction=north;" vertex="1" parent="1">
                    <mxGeometry x="655" y="374" width="10" height="20" as="geometry"/>
                </mxCell>
                <mxCell id="82" value="" style="triangle;whiteSpace=wrap;html=1;rotation=90;direction=north;" vertex="1" parent="1">
                    <mxGeometry x="655" y="354" width="10" height="20" as="geometry"/>
                </mxCell>
                <mxCell id="83" value="Spikeball" style="ellipse;whiteSpace=wrap;html=1;aspect=fixed;" vertex="1" parent="1">
                    <mxGeometry x="592.5" y="341.5" width="62.5" height="62.5" as="geometry"/>
                </mxCell>
                <mxCell id="94" value="" style="triangle;whiteSpace=wrap;html=1;rotation=90;" vertex="1" parent="1">
                    <mxGeometry x="130" y="305" width="20" height="10" as="geometry"/>
                </mxCell>
                <mxCell id="95" value="" style="triangle;whiteSpace=wrap;html=1;rotation=90;" vertex="1" parent="1">
                    <mxGeometry x="150" y="305" width="20" height="10" as="geometry"/>
                </mxCell>
                <mxCell id="96" value="" style="triangle;whiteSpace=wrap;html=1;rotation=90;direction=south;" vertex="1" parent="1">
                    <mxGeometry x="110" y="275" width="10" height="20" as="geometry"/>
                </mxCell>
                <mxCell id="97" value="" style="triangle;whiteSpace=wrap;html=1;rotation=90;direction=south;" vertex="1" parent="1">
                    <mxGeometry x="110" y="252.5" width="10" height="22.5" as="geometry"/>
                </mxCell>
                <mxCell id="98" value="" style="triangle;whiteSpace=wrap;html=1;rotation=90;direction=west;" vertex="1" parent="1">
                    <mxGeometry x="130" y="235" width="20" height="10" as="geometry"/>
                </mxCell>
                <mxCell id="99" value="" style="triangle;whiteSpace=wrap;html=1;rotation=90;direction=west;" vertex="1" parent="1">
                    <mxGeometry x="150" y="235" width="20" height="10" as="geometry"/>
                </mxCell>
                <mxCell id="100" value="" style="triangle;whiteSpace=wrap;html=1;rotation=90;direction=north;" vertex="1" parent="1">
                    <mxGeometry x="180" y="275" width="10" height="20" as="geometry"/>
                </mxCell>
                <mxCell id="101" value="" style="triangle;whiteSpace=wrap;html=1;rotation=90;direction=north;" vertex="1" parent="1">
                    <mxGeometry x="180" y="255" width="10" height="20" as="geometry"/>
                </mxCell>
                <mxCell id="102" value="Spikeball" style="ellipse;whiteSpace=wrap;html=1;aspect=fixed;" vertex="1" parent="1">
                    <mxGeometry x="117.5" y="242.5" width="62.5" height="62.5" as="geometry"/>
                </mxCell>
                <mxCell id="103" value="" style="triangle;whiteSpace=wrap;html=1;rotation=90;" vertex="1" parent="1">
                    <mxGeometry x="830" y="155" width="20" height="10" as="geometry"/>
                </mxCell>
                <mxCell id="104" value="" style="triangle;whiteSpace=wrap;html=1;rotation=90;" vertex="1" parent="1">
                    <mxGeometry x="850" y="155" width="20" height="10" as="geometry"/>
                </mxCell>
                <mxCell id="105" value="" style="triangle;whiteSpace=wrap;html=1;rotation=90;direction=south;" vertex="1" parent="1">
                    <mxGeometry x="810" y="125" width="10" height="20" as="geometry"/>
                </mxCell>
                <mxCell id="106" value="" style="triangle;whiteSpace=wrap;html=1;rotation=90;direction=south;" vertex="1" parent="1">
                    <mxGeometry x="810" y="102.5" width="10" height="22.5" as="geometry"/>
                </mxCell>
                <mxCell id="107" value="" style="triangle;whiteSpace=wrap;html=1;rotation=90;direction=west;" vertex="1" parent="1">
                    <mxGeometry x="830" y="85" width="20" height="10" as="geometry"/>
                </mxCell>
                <mxCell id="108" value="" style="triangle;whiteSpace=wrap;html=1;rotation=90;direction=west;" vertex="1" parent="1">
                    <mxGeometry x="850" y="85" width="20" height="10" as="geometry"/>
                </mxCell>
                <mxCell id="109" value="" style="triangle;whiteSpace=wrap;html=1;rotation=90;direction=north;" vertex="1" parent="1">
                    <mxGeometry x="880" y="125" width="10" height="20" as="geometry"/>
                </mxCell>
                <mxCell id="110" value="" style="triangle;whiteSpace=wrap;html=1;rotation=90;direction=north;" vertex="1" parent="1">
                    <mxGeometry x="880" y="105" width="10" height="20" as="geometry"/>
                </mxCell>
                <mxCell id="111" value="Spikeball" style="ellipse;whiteSpace=wrap;html=1;aspect=fixed;" vertex="1" parent="1">
                    <mxGeometry x="817.5" y="92.5" width="62.5" height="62.5" as="geometry"/>
                </mxCell>
                <mxCell id="112" value="" style="triangle;whiteSpace=wrap;html=1;rotation=90;" vertex="1" parent="1">
                    <mxGeometry x="800" y="477.5" width="20" height="10" as="geometry"/>
                </mxCell>
                <mxCell id="113" value="" style="triangle;whiteSpace=wrap;html=1;rotation=90;" vertex="1" parent="1">
                    <mxGeometry x="820" y="477.5" width="20" height="10" as="geometry"/>
                </mxCell>
                <mxCell id="114" value="" style="triangle;whiteSpace=wrap;html=1;rotation=90;direction=south;" vertex="1" parent="1">
                    <mxGeometry x="780" y="447.5" width="10" height="20" as="geometry"/>
                </mxCell>
                <mxCell id="115" value="" style="triangle;whiteSpace=wrap;html=1;rotation=90;direction=south;" vertex="1" parent="1">
                    <mxGeometry x="780" y="425" width="10" height="22.5" as="geometry"/>
                </mxCell>
                <mxCell id="116" value="" style="triangle;whiteSpace=wrap;html=1;rotation=90;direction=west;" vertex="1" parent="1">
                    <mxGeometry x="800" y="407.5" width="20" height="10" as="geometry"/>
                </mxCell>
                <mxCell id="117" value="" style="triangle;whiteSpace=wrap;html=1;rotation=90;direction=west;" vertex="1" parent="1">
                    <mxGeometry x="820" y="407.5" width="20" height="10" as="geometry"/>
                </mxCell>
                <mxCell id="118" value="" style="triangle;whiteSpace=wrap;html=1;rotation=90;direction=north;" vertex="1" parent="1">
                    <mxGeometry x="850" y="447.5" width="10" height="20" as="geometry"/>
                </mxCell>
                <mxCell id="119" value="" style="triangle;whiteSpace=wrap;html=1;rotation=90;direction=north;" vertex="1" parent="1">
                    <mxGeometry x="850" y="427.5" width="10" height="20" as="geometry"/>
                </mxCell>
                <mxCell id="120" value="Spikeball" style="ellipse;whiteSpace=wrap;html=1;aspect=fixed;" vertex="1" parent="1">
                    <mxGeometry x="787.5" y="415" width="62.5" height="62.5" as="geometry"/>
                </mxCell>
                <mxCell id="121" value="" style="triangle;whiteSpace=wrap;html=1;rotation=90;" vertex="1" parent="1">
                    <mxGeometry x="480" y="245" width="20" height="10" as="geometry"/>
                </mxCell>
                <mxCell id="122" value="" style="triangle;whiteSpace=wrap;html=1;rotation=90;" vertex="1" parent="1">
                    <mxGeometry x="500" y="245" width="20" height="10" as="geometry"/>
                </mxCell>
                <mxCell id="123" value="" style="triangle;whiteSpace=wrap;html=1;rotation=90;direction=south;" vertex="1" parent="1">
                    <mxGeometry x="460" y="215" width="10" height="20" as="geometry"/>
                </mxCell>
                <mxCell id="124" value="" style="triangle;whiteSpace=wrap;html=1;rotation=90;direction=south;" vertex="1" parent="1">
                    <mxGeometry x="460" y="192.5" width="10" height="22.5" as="geometry"/>
                </mxCell>
                <mxCell id="125" value="" style="triangle;whiteSpace=wrap;html=1;rotation=90;direction=west;" vertex="1" parent="1">
                    <mxGeometry x="480" y="175" width="20" height="10" as="geometry"/>
                </mxCell>
                <mxCell id="126" value="" style="triangle;whiteSpace=wrap;html=1;rotation=90;direction=west;" vertex="1" parent="1">
                    <mxGeometry x="500" y="175" width="20" height="10" as="geometry"/>
                </mxCell>
                <mxCell id="127" value="" style="triangle;whiteSpace=wrap;html=1;rotation=90;direction=north;" vertex="1" parent="1">
                    <mxGeometry x="530" y="215" width="10" height="20" as="geometry"/>
                </mxCell>
                <mxCell id="128" value="" style="triangle;whiteSpace=wrap;html=1;rotation=90;direction=north;" vertex="1" parent="1">
                    <mxGeometry x="530" y="195" width="10" height="20" as="geometry"/>
                </mxCell>
                <mxCell id="129" value="Spikeball" style="ellipse;whiteSpace=wrap;html=1;aspect=fixed;" vertex="1" parent="1">
                    <mxGeometry x="467.5" y="182.5" width="62.5" height="62.5" as="geometry"/>
                </mxCell>
                <mxCell id="130" value="Score = 0" style="rounded=0;whiteSpace=wrap;html=1;" vertex="1" parent="1">
                    <mxGeometry x="50" y="15" width="100" height="35" as="geometry"/>
                </mxCell>
                <mxCell id="133" value="" style="ellipse;shape=cloud;whiteSpace=wrap;html=1;direction=south;" vertex="1" parent="1">
                    <mxGeometry x="560" y="430" width="35" height="50" as="geometry"/>
                </mxCell>
                <mxCell id="134" value="Golden&lt;br&gt;Pineapple" style="shape=cylinder3;whiteSpace=wrap;html=1;boundedLbl=1;backgroundOutline=1;size=15;" vertex="1" parent="1">
                    <mxGeometry x="545" y="458.75" width="60" height="80" as="geometry"/>
                </mxCell>
                <mxCell id="145" value="" style="triangle;whiteSpace=wrap;html=1;rotation=90;" vertex="1" parent="1">
                    <mxGeometry x="460" y="550" width="20" height="10" as="geometry"/>
                </mxCell>
                <mxCell id="146" value="" style="triangle;whiteSpace=wrap;html=1;rotation=90;" vertex="1" parent="1">
                    <mxGeometry x="480" y="550" width="20" height="10" as="geometry"/>
                </mxCell>
                <mxCell id="147" value="" style="triangle;whiteSpace=wrap;html=1;rotation=90;direction=south;" vertex="1" parent="1">
                    <mxGeometry x="440" y="520" width="10" height="20" as="geometry"/>
                </mxCell>
                <mxCell id="148" value="" style="triangle;whiteSpace=wrap;html=1;rotation=90;direction=south;" vertex="1" parent="1">
                    <mxGeometry x="440" y="497.5" width="10" height="22.5" as="geometry"/>
                </mxCell>
                <mxCell id="149" value="" style="triangle;whiteSpace=wrap;html=1;rotation=90;direction=west;" vertex="1" parent="1">
                    <mxGeometry x="460" y="480" width="20" height="10" as="geometry"/>
                </mxCell>
                <mxCell id="150" value="" style="triangle;whiteSpace=wrap;html=1;rotation=90;direction=west;" vertex="1" parent="1">
                    <mxGeometry x="480" y="480" width="20" height="10" as="geometry"/>
                </mxCell>
                <mxCell id="151" value="" style="triangle;whiteSpace=wrap;html=1;rotation=90;direction=north;" vertex="1" parent="1">
                    <mxGeometry x="510" y="520" width="10" height="20" as="geometry"/>
                </mxCell>
                <mxCell id="152" value="" style="triangle;whiteSpace=wrap;html=1;rotation=90;direction=north;" vertex="1" parent="1">
                    <mxGeometry x="510" y="500" width="10" height="20" as="geometry"/>
                </mxCell>
                <mxCell id="153" value="Spikeball" style="ellipse;whiteSpace=wrap;html=1;aspect=fixed;" vertex="1" parent="1">
                    <mxGeometry x="447.5" y="487.5" width="62.5" height="62.5" as="geometry"/>
                </mxCell>
                <mxCell id="154" value="GAME OVER YOU ARE A LOSER YOU SUCK" style="rounded=0;whiteSpace=wrap;html=1;" vertex="1" parent="1">
                    <mxGeometry x="150" y="271.88" width="680" height="148.75" as="geometry"/>
                </mxCell>
            </root>
        </mxGraphModel>
    </diagram>
</mxfile>